HIERARCHY
ROOT Hips
{
	OFFSET -0.001795 -0.223333 0.028219
	CHANNELS 6 Xposition Yposition Zposition Zrotation Yrotation Xrotation 
	JOINT LeftUpLeg
	{
		OFFSET 0.069520 -0.091406 -0.006815
		CHANNELS 3 Zrotation Yrotation Xrotation
		JOINT LeftLeg
		{
			OFFSET 0.034277 -0.375199 -0.004496
			CHANNELS 3 Zrotation Yrotation Xrotation
			JOINT LeftFoot
			{
				OFFSET -0.013596 -0.397961 -0.043693
				CHANNELS 3 Zrotation Yrotation Xrotation
				JOINT LeftToe
				{
					OFFSET 0.026358 -0.055791 0.119288
					CHANNELS 3 Zrotation Yrotation Xrotation
					End Site
					{
						OFFSET 0.000000 0.000000 0.000000
					}
				}
			}
		}
	}
	JOINT RightUpLeg
	{
		OFFSET -0.067670 -0.090522 -0.004320
		CHANNELS 3 Zrotation Yrotation Xrotation
		JOINT RightLeg
		{
			OFFSET -0.038290 -0.382569 -0.008850
			CHANNELS 3 Zrotation Yrotation Xrotation
			JOINT RightFoot
			{
				OFFSET 0.015774 -0.398415 -0.042312
				CHANNELS 3 Zrotation Yrotation Xrotation
				JOINT RightToe
				{
					OFFSET -0.025372 -0.048144 0.123348
					CHANNELS 3 Zrotation Yrotation Xrotation
					End Site
					{
						OFFSET 0.000000 0.000000 0.000000
					}
				}
			}
		}
	}
	JOINT Spine
	{
		OFFSET -0.002533 0.108963 -0.026696
		CHANNELS 3 Zrotation Yrotation Xrotation
		JOINT Spine1
		{
			OFFSET 0.005487 0.135180 0.001092
			CHANNELS 3 Zrotation Yrotation Xrotation
			JOINT Spine2
			{
				OFFSET 0.001457 0.052922 0.025425
				CHANNELS 3 Zrotation Yrotation Xrotation
				JOINT Neck
				{
					OFFSET -0.002778 0.213870 -0.042857
					CHANNELS 3 Zrotation Yrotation Xrotation
					JOINT Head
					{
						OFFSET 0.005152 0.064970 0.051349
						CHANNELS 3 Zrotation Yrotation Xrotation
						End Site
						{
							OFFSET 0.000000 0.000000 0.000000
						}
					}
				}
				JOINT LeftShoulder
				{
					OFFSET 0.078845 0.121749 -0.034090
					CHANNELS 3 Zrotation Yrotation Xrotation
					JOINT LeftArm
					{
						OFFSET 0.090977 0.030469 -0.008868
						CHANNELS 3 Zrotation Yrotation Xrotation
						JOINT LeftForeArm
						{
							OFFSET 0.259612 -0.012772 -0.027456
							CHANNELS 3 Zrotation Yrotation Xrotation
							JOINT LeftHand
							{
								OFFSET 0.249234 0.008986 -0.001171
								CHANNELS 3 Zrotation Yrotation Xrotation
								End Site
								{
									OFFSET 0.000000 0.000000 0.000000
								}
							}
						}
					}
				}
				JOINT RightShoulder
				{
					OFFSET -0.081759 0.118833 -0.038615
					CHANNELS 3 Zrotation Yrotation Xrotation
					JOINT RightArm
					{
						OFFSET -0.096012 0.032551 -0.009143
						CHANNELS 3 Zrotation Yrotation Xrotation
						JOINT RightForeArm
						{
							OFFSET -0.253742 -0.013329 -0.021401
							CHANNELS 3 Zrotation Yrotation Xrotation
							JOINT RightHand
							{
								OFFSET -0.255298 0.007772 -0.005559
								CHANNELS 3 Zrotation Yrotation Xrotation
								End Site
								{
									OFFSET 0.000000 0.000000 0.000000
								}
							}
						}
					}
				}
			}
		}
	}
}
MOTION
Frames: 9
Frame Time: 0.050000
0.000000 0.941972 0.000000 -0.360402 -4.936042 -0.978911 0.311536 0.156060 1.670915 -0.343911 -0.146710 7.423607 1.229576 2.283994 -1.034742 0.000000 0.000000 0.000000 3.088896 -0.157089 0.581318 -1.014558 0.416057 5.951974 -0.358151 -0.363990 -0.911387 0.000000 0.000000 0.000000 4.321595 -0.098235 1.039653 -2.141259 0.987248 -4.314547 -2.606380 5.236824 8.880583 5.922629 -1.871144 -18.624970 0.000000 0.000000 0.000000 -22.686612 -2.737447 -1.398992 -53.110934 -0.485265 -6.344298 -9.783822 -23.070519 2.779685 0.000000 0.000000 0.000000 23.181203 -3.130624 -3.016834 59.428970 -1.234905 -7.015025 8.056273 25.403970 2.781803 0.000000 0.000000 0.000000 
0.000052 0.941047 0.000077 -0.399405 -5.218572 -1.701196 0.276977 0.185401 1.957834 -0.315306 -0.172512 8.525319 1.388953 2.341944 -1.876475 0.000000 0.000000 0.000000 3.079488 -0.197273 0.955938 -1.515322 0.562598 7.066722 -0.069936 1.186583 -2.148090 0.000000 0.000000 0.000000 4.086178 -0.095216 1.163717 -2.055240 0.953090 -3.549042 -2.375708 5.220229 9.095828 5.442751 -1.580281 -18.869333 0.000000 0.000000 0.000000 -22.621311 -3.090247 -1.119535 -53.547961 -0.215642 -6.568661 -10.056980 -22.800446 2.813570 0.000000 0.000000 0.000000 23.092854 -1.829120 -2.287052 58.996874 -0.862594 -6.816603 8.175687 24.277438 2.642573 0.000000 0.000000 0.000000 
0.000150 0.939869 0.000037 -0.235708 -5.339298 -1.712597 0.255048 0.109531 1.149761 -0.254803 -0.197262 9.268776 1.288211 1.684450 -3.054777 0.000000 0.000000 0.000000 2.439149 -0.093623 0.247837 -0.931102 0.517039 7.871041 -0.173813 1.138991 -2.484598 0.000000 0.000000 0.000000 3.573668 -0.071355 0.899822 -1.923538 0.884760 -4.654820 -1.996278 5.122565 10.370783 5.430873 -1.750152 -17.998150 0.000000 0.000000 0.000000 -22.068631 -3.030161 -0.948683 -53.623761 0.103695 -6.867829 -11.180056 -23.111504 3.113836 0.000000 0.000000 0.000000 21.899143 -0.999386 -1.747053 59.365683 -0.728056 -6.892844 9.677219 23.884897 2.888695 0.000000 0.000000 0.000000 
0.000096 0.940530 -0.000009 0.046979 -5.319715 -1.197250 -0.148619 0.058479 0.592888 -0.120260 -0.220095 9.070172 1.696740 2.664646 -2.949192 0.000000 0.000000 0.000000 2.385029 -0.025603 -0.352445 -0.935003 0.551025 8.439033 -0.721765 0.313139 -3.491270 0.000000 0.000000 0.000000 3.738877 -0.039406 0.366171 -2.027325 0.934168 -4.006332 -2.250402 5.248906 9.506227 5.367922 -1.631946 -18.262765 0.000000 0.000000 0.000000 -22.845934 -2.488662 -1.443577 -52.845960 0.085889 -6.631555 -11.849469 -22.733361 3.170093 0.000000 0.000000 0.000000 21.925355 -1.131184 -1.794485 58.947486 -0.833664 -6.809576 10.941097 23.487990 3.075626 0.000000 0.000000 0.000000 
0.000198 0.940521 -0.000072 -0.174194 -4.941001 -1.142773 -0.153276 0.047169 0.477633 -0.460927 -0.144677 8.429738 2.385713 4.424060 -2.303774 0.000000 0.000000 0.000000 2.217401 -0.001777 -0.513424 -0.280948 0.470431 9.096340 -1.426587 -1.529445 -3.700181 0.000000 0.000000 0.000000 4.032386 -0.080904 0.882059 -1.813921 0.842485 -4.589825 -2.425201 5.190610 10.076908 5.030948 -1.381653 -18.568863 0.000000 0.000000 0.000000 -23.293157 -2.489011 -1.522207 -52.462732 -0.419012 -6.402005 -12.475453 -22.835781 3.311214 0.000000 0.000000 0.000000 22.200668 -1.297459 -1.841496 58.342588 -0.581176 -6.698516 11.466133 23.748401 3.235905 0.000000 0.000000 0.000000 
0.000301 0.940526 -0.000097 -0.385267 -5.073730 -1.089174 -0.498337 0.005166 0.037904 -0.416363 -0.152159 8.456438 2.363310 4.366538 -2.341462 0.000000 0.000000 0.000000 2.550657 0.007654 -0.661522 -0.368094 0.517585 9.642939 -1.538875 -1.705458 -3.909184 0.000000 0.000000 0.000000 4.082118 -0.083404 0.900908 -1.881243 0.873206 -4.015007 -2.400712 5.324893 9.881677 5.061979 -1.423805 -18.287490 0.000000 0.000000 0.000000 -23.640982 -2.595737 -1.534797 -51.951768 -1.018454 -6.050564 -12.070877 -22.566035 3.183066 0.000000 0.000000 0.000000 22.693313 -1.173509 -1.783666 57.808335 -0.317753 -6.517477 11.998935 24.471766 3.463105 0.000000 0.000000 0.000000 
0.000343 0.940587 -0.000149 -0.756044 -5.855315 -1.340206 -0.267418 -0.001230 -0.024304 -0.446878 -0.148095 9.137360 2.263542 3.916788 -3.164602 0.000000 0.000000 0.000000 2.748096 0.027031 -0.865714 -0.358143 0.545182 10.004068 -1.059282 -0.395631 -3.791358 0.000000 0.000000 0.000000 4.312457 -0.123135 1.441278 -2.307605 1.056503 -3.718307 -2.004072 5.727822 9.084877 5.009477 -1.440777 -17.819878 0.000000 0.000000 0.000000 -23.745472 -2.805199 -1.446032 -51.834308 -2.041012 -5.531714 -11.749795 -21.182416 2.911703 0.000000 0.000000 0.000000 22.157111 -0.592445 -1.442483 57.841008 0.429418 -6.083033 11.689280 24.069561 3.319479 0.000000 0.000000 0.000000 
0.000400 0.941162 -0.000322 -0.523367 -6.005570 -1.532162 -0.460149 0.013798 0.130816 -0.634939 -0.100982 8.709720 2.513893 4.649513 -2.670102 0.000000 0.000000 0.000000 2.482083 0.102263 -1.452396 -0.546638 0.599962 10.300380 -1.013044 -0.401778 -3.567718 0.000000 0.000000 0.000000 4.027729 -0.184973 2.347808 -1.929993 0.881680 -4.255303 -2.853997 6.297745 9.081119 6.087146 -2.118021 -17.202248 0.000000 0.000000 0.000000 -22.728717 -4.070803 -0.794196 -52.408144 -2.171644 -5.525513 -10.962905 -21.207041 2.744540 0.000000 0.000000 0.000000 22.210683 -0.241873 -1.052398 57.651626 1.516172 -5.597893 11.433268 23.990256 3.287111 0.000000 0.000000 0.000000 
0.000487 0.942209 -0.000621 -0.490672 -5.889032 -1.238062 -0.791044 0.023417 0.221181 -0.556142 -0.098001 7.512624 2.690475 5.365238 -1.539447 0.000000 0.000000 0.000000 2.485012 0.139127 -1.776004 -0.871878 0.625467 9.756310 -0.999534 -0.693802 -3.066513 0.000000 0.000000 0.000000 4.190023 -0.206475 2.532164 -1.778004 0.814012 -4.591076 -3.549184 6.718787 9.304081 6.724820 -2.469964 -17.075737 0.000000 0.000000 0.000000 -21.878464 -4.632482 -0.556801 -53.235639 -3.064645 -5.233834 -10.405280 -20.992674 2.593004 0.000000 0.000000 0.000000 22.158810 -0.781991 -1.181489 58.311778 2.018226 -5.453289 11.238069 24.148223 3.314827 0.000000 0.000000 0.000000 
